<?xml version="1.0" encoding="utf-8"?>
<!-- Generator: Adobe Illustrator 19.2.1, SVG Export Plug-In . SVG Version: 6.00 Build 0)  -->
<svg version="1.1" id="webchart" xmlns="http://www.w3.org/2000/svg" xmlns:xlink="http://www.w3.org/1999/xlink" x="0px" y="0px"
	 viewBox="0 0 300 460" style="enable-background:new 0 0 300 460;" xml:space="preserve">
<style type="text/css">
	.st0{fill:none;}
	.st1{fill:#3B3D3B;}
	.st2{font-family:'Metric-Regular';}
	.st3{font-size:21px;}
	.st4{fill:#6B6E68;}
	.st5{font-size:14px;}
	.st6{font-size:11.5px;}
	.st7{fill:#DACFC5;}
	.st8{opacity:0.2;fill:none;stroke:#000000;stroke-width:181.968;enable-background:new    ;}
	.st9{opacity:0.2;fill:none;stroke:#000000;stroke-width:79.2097;enable-background:new    ;}
	.st10{opacity:0.2;fill:none;stroke:#000000;stroke-width:20.3376;enable-background:new    ;}
	.st11{fill:#A5526A;}
	.st12{fill:#F19F9E;}
	.st13{fill:#D36969;}
	.st14{fill:#69A1AA;}
</style>
<rect class="st0" width="300" height="460"/>
<g id="webheader">
	<text transform="matrix(1 0 0 1 0 21)" class="st1 st2 st3">Third of top Obama donors have</text>
	<text transform="matrix(1 0 0 1 0 44.1)" class="st1 st2 st3">yet to give</text>
	<text transform="matrix(1 0 0 1 0 65.0938)" class="st4 st2 st5">Where Barack Obama&apos;s 500 largest financial</text>
	<text transform="matrix(1 0 0 1 0 80.4938)" class="st4 st2 st5">backers have donated so far this cycle</text>
</g>
<g>
	<text transform="matrix(1 0 0 1 0 456.0719)" class="st4 st2 st6">FT/CrowdPac analysis of Federal Election Commission filings</text>
	<g transform="translate(271,444)">
		<path class="st7" d="M0,16h7.6v-0.6c-0.5,0-0.9,0-1.2-0.1c-0.3,0-0.5-0.1-0.7-0.3c-0.2-0.1-0.3-0.3-0.4-0.6
			c-0.1-0.2-0.1-0.6-0.1-1V8.2h1.2c1.1,0,1.9,0.2,2.3,0.5c0.5,0.3,0.8,0.9,1,1.9h0.6V5H9.8C9.7,5.6,9.5,6,9.3,6.3s-0.5,0.5-1,0.6
			C7.9,7,7.3,7.1,6.5,7.1H5.3V2c0-0.3,0.1-0.5,0.2-0.7c0.1-0.1,0.3-0.2,0.7-0.2h2.4c0.8,0,1.4,0,1.9,0.1s0.9,0.2,1.2,0.4
			s0.6,0.4,0.7,0.7c0.2,0.3,0.3,0.7,0.5,1.1h0.7L13.4,0H0v0.6c0.4,0,0.8,0.1,1,0.1S1.4,0.8,1.6,1C1.8,1.1,1.9,1.3,2,1.5
			c0.1,0.2,0.1,0.6,0.1,1v10.9c0,0.4,0,0.8-0.1,1S1.8,14.8,1.6,15c-0.2,0.1-0.4,0.2-0.6,0.3c-0.2,0-0.6,0.1-1,0.1C0,15.4,0,16,0,16z
			 M14.2,3.5H15c0.3-0.9,0.6-1.5,1-1.8c0.4-0.4,1.1-0.5,1.9-0.5h2v12.3c0,0.4,0,0.8-0.1,1s-0.2,0.4-0.4,0.6
			c-0.2,0.1-0.4,0.2-0.7,0.3c-0.3,0-0.6,0.1-1.1,0.1V16h7.7v-0.6c-0.5,0-0.9,0-1.1-0.1c-0.3,0-0.5-0.1-0.7-0.3
			c-0.2-0.1-0.3-0.3-0.4-0.6c-0.1-0.2-0.1-0.6-0.1-1V1.2h2c0.8,0,1.5,0.2,1.9,0.5c0.4,0.4,0.8,1,1,1.8h0.8L28.5,0H14.6L14.2,3.5z"/>
	</g>
</g>
<g id="webplot" transform="translate(0,85.484375)">
	<rect id="webChart" class="st0" width="271" height="353.5"/>
	<g>
		<path id="Top_500_Obama_donors_to_Hillary_Clinton_x0A_340" class="st8" d="M9.8,129.9c125.7,0,125.7-8.9,251.4-8.9"/>
		<path id="Top_500_Obama_donors_to_No_one_x0A_148" class="st9" d="M9.8,260.5c125.7,0,125.7,12.1,251.4,12.1"/>
		<path id="Top_500_Obama_donors_to_Bernie_Sanders2016_x0A_38" class="st10" d="M9.8,310.3c125.7,0,125.7,33.1,251.4,33.1"/>
	</g>
	<g>
		<g transform="translate(0,38.94296577946767)">
			<rect y="0" class="st11" width="9.8" height="281.5"/>
			<text transform="matrix(1 0 0 1 0 -3.5)" class="st4 st2 st5">Top 500 Obama donors</text>
		</g>
		<g transform="translate(261.2,29.999999999999993)">
			<rect x="0" class="st12" width="9.8" height="182"/>
			<text transform="matrix(1 0 0 1 -66.4572 -3.5)" class="st4 st2 st5">Hillary Clinton</text>
		</g>
		<g transform="translate(261.2,333.17799429657794)">
			<rect x="0" y="0" class="st13" width="9.8" height="20.3"/>
			<text transform="matrix(1 0 0 1 -69.0528 -3.5)" class="st4 st2 st5">Bernie Sanders</text>
		</g>
		<g transform="translate(261.2,232.96827471482888)">
			<rect x="0" y="0" class="st14" width="9.8" height="79.2"/>
			<text transform="matrix(1 0 0 1 -28.5455 -3.5)" class="st4 st2 st5">No one</text>
		</g>
	</g>
	<text transform="matrix(1 0 0 1 0 14)" class="st4 st2 st5">2012</text>
	<text transform="matrix(1 0 0 1 218.5989 14)" class="st4 st2 st5">2016 YTD</text>
</g>
</svg>
