<?xml version="1.0" encoding="utf-8"?>
<!-- Generator: Adobe Illustrator 19.2.1, SVG Export Plug-In . SVG Version: 6.00 Build 0)  -->
<svg version="1.1" id="socialchart" xmlns="http://www.w3.org/2000/svg" xmlns:xlink="http://www.w3.org/1999/xlink" x="0px"
	 y="0px" viewBox="0 0 560 694" style="enable-background:new 0 0 560 694;" xml:space="preserve">
<style type="text/css">
	.st0{fill:#212121;}
	.st1{fill:none;}
	.st2{fill:#FFFFFF;}
	.st3{font-family:'Metric-Medium';}
	.st4{font-size:38px;}
	.st5{font-family:'Metric-Thin';}
	.st6{font-size:28px;}
	.st7{font-size:25px;}
	.st8{opacity:0.38;}
	.st9{opacity:0.2;fill:none;stroke:#FFFFFF;stroke-width:190.381;enable-background:new    ;}
	.st10{opacity:0.2;fill:none;stroke:#FFFFFF;stroke-width:82.8719;enable-background:new    ;}
	.st11{opacity:0.2;fill:none;stroke:#FFFFFF;stroke-width:21.2779;enable-background:new    ;}
	.st12{fill:#EB3F50;}
	.st13{opacity:0.7;fill:#FFFFFF;enable-background:new    ;}
	.st14{fill:#00D9CA;}
	.st15{fill:#BF9413;}
	.st16{fill:#1F5E99;}
	.st17{font-family:'Metric-Light';}
</style>
<rect class="st0" width="560" height="694"/>
<g id="socialheader">
	<rect x="29" y="22.3" class="st1" width="455.5" height="38.9"/>
	<text transform="matrix(1 0 0 1 29 53)" class="st2 st3 st4">Third of top Obama donors</text>
	<rect x="29" y="64.1" class="st1" width="387.3" height="38.9"/>
	<text transform="matrix(1 0 0 1 29 94.8)" class="st2 st3 st4">have yet to join Clinton</text>
	<rect x="29" y="110.3" class="st1" width="506" height="28.7"/>
	<text transform="matrix(1 0 0 1 29 132.8906)" class="st2 st5 st6">Where Obama&apos;s 500 largest contributors in 2012 </text>
	<rect x="29" y="141.1" class="st1" width="430.9" height="27.6"/>
	<text transform="matrix(1 0 0 1 29 163.6906)" class="st2 st5 st6">have donated so far this cycle</text>
	<rect x="29" y="171.9" class="st1" width="0" height="27.6"/>
</g>
<text transform="matrix(1 0 0 1 30 663.0312)" class="st2 st5 st7">FT/CrowdPac analysis of FEC filings to June 30</text>
<g transform="translate(477,667)" class="st8">
	<path class="st2" d="M46,21h-58v-58h58V21L46,21z M2.8-15.3h2c3.4,0,4.9,0.8,5.5,3.9h1v-9.2h-1c-0.5,2.7-1.4,3.5-5.5,3.5h-2v-8.3
		c0-1.1,0.3-1.3,1.5-1.3h4c5.1,0,6.1,0.9,7.1,3.9h1.1l-0.2-5.8H-5.6v1c2.5,0.1,3.2,0.4,3.2,3.2v17.9c0,2.7-0.7,3-3.3,3.2v1H6.7v-1
		C3.6-3.7,2.8-4,2.8-6.7L2.8-15.3L2.8-15.3z M41-28.8h-23L17.5-23h1.3c0.8-2.8,2.1-3.9,4.8-3.9h3.2v20.1c0,2.7-0.7,3-3.7,3.2v1h12.6
		v-1c-3-0.1-3.7-0.4-3.7-3.2v-20.1h3.2c2.8,0,4,1,4.8,3.9h1.3L41-28.8L41-28.8z M46,21h-58v-58h58V21L46,21z M2.8-15.3h2
		c3.4,0,4.9,0.8,5.5,3.9h1v-9.2h-1c-0.5,2.7-1.4,3.5-5.5,3.5h-2v-8.3c0-1.1,0.3-1.3,1.5-1.3h4c5.1,0,6.1,0.9,7.1,3.9h1.1l-0.2-5.8
		H-5.6v1c2.5,0.1,3.2,0.4,3.2,3.2v17.9c0,2.7-0.7,3-3.3,3.2v1H6.7v-1C3.6-3.7,2.8-4,2.8-6.7L2.8-15.3L2.8-15.3z M41-28.8h-23
		L17.5-23h1.3c0.8-2.8,2.1-3.9,4.8-3.9h3.2v20.1c0,2.7-0.7,3-3.7,3.2v1h12.6v-1c-3-0.1-3.7-0.4-3.7-3.2v-20.1h3.2c2.8,0,4,1,4.8,3.9
		h1.3L41-28.8L41-28.8z"/>
</g>
<rect id="socialChart" x="31" y="180.5" class="st1" width="492" height="438.5"/>
<g>
	<path id="Top_500_Obama_donors_to_Hillary_Clinton_x0A_340" class="st9" d="M52,353.5c225,0,225-17.9,450.1-17.9"/>
	<path id="Top_500_Obama_donors_to_No_one_x0A_148" class="st10" d="M52,490.2c225,0,225,24.1,450.1,24.1"/>
	<path id="Top_500_Obama_donors_to_Bernie_Sanders2016_x0A_38" class="st11" d="M52,542.2c225,0,225,66.1,450.1,66.1"/>
</g>
<rect x="31" y="258.4" class="st12" width="21" height="294.5"/>
<text transform="matrix(1 0 0 1 31 241.4689)" class="st13 st5 st6">Top 500 Obama donors</text>
<rect x="502" y="240.5" class="st14" width="21" height="190.4"/>
<text transform="matrix(1 0 0 1 381.6154 233.4688)" class="st13 st5 st6">Hillary Clinton</text>
<rect x="502" y="597.7" class="st15" width="21" height="21.3"/>
<text transform="matrix(1 0 0 1 370.8289 590.722)" class="st13 st5 st6">Bernie Sanders</text>
<rect x="502" y="472.9" class="st16" width="21" height="82.9"/>
<text transform="matrix(1 0 0 1 449.8777 465.8502)" class="st13 st5 st6">No one</text>
<text transform="matrix(1 0 0 1 31 208.4688)" class="st13 st17 st6">2012</text>
<text transform="matrix(1 0 0 1 422.1294 208.4688)" class="st13 st17 st6">2016 YTD</text>
</svg>
